<svg xmlns="http://www.w3.org/2000/svg" viewBox="0 0 512 512" role="img" aria-labelledby="title">
  <title>Brewgram Icon</title>
  <defs>
    <linearGradient id="bg" x1="0%" x2="100%" y1="0%" y2="100%">
      <stop offset="0%" stop-color="#ff8a50" />
      <stop offset="100%" stop-color="#ff5f6d" />
    </linearGradient>
  </defs>
  <rect width="512" height="512" rx="120" fill="#fff6ef" />
  <rect x="52" y="52" width="408" height="408" rx="104" fill="url(#bg)" />
  <circle cx="256" cy="220" r="86" fill="#fff6ef" opacity="0.92" />
  <path
    d="M180 178h92c45 0 72 22 72 58 0 24-12 40-33 49 28 9 43 29 43 57 0 42-31 66-84 66H180V178Zm84 95c22 0 35-10 35-27s-12-26-34-26h-40v53h39Zm8 92c24 0 39-11 39-31 0-19-14-30-40-30h-46v61h47Z"
    fill="#7a271f"
  />
</svg>
